{
    "asset" : {
        "generator" : "Khronos glTF Blender I/O v1.8.19",
        "version" : "2.0"
    },
    "extensionsUsed" : [
        "KHR_materials_transmission"
    ],
    "scene" : 0,
    "scenes" : [
        {
            "name" : "Scene",
            "nodes" : [
                0,
                1,
                3
            ]
        }
    ],
    "nodes" : [
        {
            "mesh" : 0,
            "name" : "Sphere",
            "rotation" : [
                0.6804623603820801,
                -0.19562594592571259,
                0.1962270885705948,
                0.6783777475357056
            ],
            "scale" : [
                0.42248761653900146,
                0.42248761653900146,
                0.42248761653900146
            ],
            "translation" : [
                -0.00034098702599294484,
                0,
                -5.1081442506983876e-05
            ]
        },
        {
            "mesh" : 1,
            "name" : "Text",
            "rotation" : [
                0,
                0.0027038143016397953,
                0,
                -0.9999963641166687
            ],
            "scale" : [
                1.007270097732544,
                3.9698472023010254,
                1.0045677423477173
            ],
            "translation" : [
                -0.16020482778549194,
                -0.42201265692710876,
                0.1823987513780594
            ]
        },
        {
            "mesh" : 2,
            "name" : "Sphere.002",
            "rotation" : [
                -0.6546250581741333,
                0.2615078389644623,
                -0.25269851088523865,
                0.662739098072052
            ],
            "scale" : [
                0.12354277074337006,
                0.2063618302345276,
                0.12322217226028442
            ],
            "translation" : [
                -0.4956771731376648,
                0.7984988689422607,
                -0.04090737923979759
            ]
        },
        {
            "children" : [
                2
            ],
            "name" : "Empty.001",
            "rotation" : [
                0.33291903138160706,
                0.6238308548927307,
                -0.6238308548927307,
                0.33291903138160706
            ],
            "scale" : [
                1.4153399467468262,
                1.4153399467468262,
                0.9688276648521423
            ],
            "translation" : [
                -0.00034100000630132854,
                -0.03963214159011841,
                -5.0999999075429514e-05
            ]
        }
    ],
    "animations" : [
        {
            "channels" : [
                {
                    "sampler" : 0,
                    "target" : {
                        "node" : 0,
                        "path" : "translation"
                    }
                },
                {
                    "sampler" : 1,
                    "target" : {
                        "node" : 0,
                        "path" : "rotation"
                    }
                },
                {
                    "sampler" : 2,
                    "target" : {
                        "node" : 0,
                        "path" : "scale"
                    }
                }
            ],
            "name" : "SphereAction",
            "samplers" : [
                {
                    "input" : 12,
                    "interpolation" : "LINEAR",
                    "output" : 13
                },
                {
                    "input" : 12,
                    "interpolation" : "LINEAR",
                    "output" : 14
                },
                {
                    "input" : 15,
                    "interpolation" : "LINEAR",
                    "output" : 16
                }
            ]
        },
        {
            "channels" : [
                {
                    "sampler" : 0,
                    "target" : {
                        "node" : 3,
                        "path" : "translation"
                    }
                },
                {
                    "sampler" : 1,
                    "target" : {
                        "node" : 3,
                        "path" : "rotation"
                    }
                },
                {
                    "sampler" : 2,
                    "target" : {
                        "node" : 3,
                        "path" : "scale"
                    }
                }
            ],
            "name" : "Empty.001Action",
            "samplers" : [
                {
                    "input" : 17,
                    "interpolation" : "LINEAR",
                    "output" : 18
                },
                {
                    "input" : 19,
                    "interpolation" : "LINEAR",
                    "output" : 20
                },
                {
                    "input" : 17,
                    "interpolation" : "LINEAR",
                    "output" : 21
                }
            ]
        }
    ],
    "materials" : [
        {
            "doubleSided" : true,
            "extensions" : {
                "KHR_materials_transmission" : {
                    "transmissionFactor" : 1
                }
            },
            "name" : "glass shader",
            "pbrMetallicRoughness" : {
                "baseColorFactor" : [
                    0.3476385176181793,
                    0.7170765995979309,
                    1,
                    1
                ],
                "metallicFactor" : 0,
                "roughnessFactor" : 0.31515151262283325
            }
        },
        {
            "doubleSided" : true,
            "name" : "Material.004",
            "pbrMetallicRoughness" : {
                "baseColorFactor" : [
                    0.47076013684272766,
                    0.772571325302124,
                    0.799102783203125,
                    1
                ],
                "metallicFactor" : 0,
                "roughnessFactor" : 0.5
            }
        },
        {
            "doubleSided" : true,
            "extensions" : {
                "KHR_materials_transmission" : {
                    "transmissionFactor" : 1
                }
            },
            "name" : "Material.001",
            "pbrMetallicRoughness" : {
                "baseColorFactor" : [
                    0.39566144347190857,
                    1,
                    0,
                    1
                ],
                "metallicFactor" : 0.6060606241226196,
                "roughnessFactor" : 0.2878788113594055
            }
        }
    ],
    "meshes" : [
        {
            "name" : "Sphere",
            "primitives" : [
                {
                    "attributes" : {
                        "POSITION" : 0,
                        "NORMAL" : 1,
                        "TEXCOORD_0" : 2
                    },
                    "indices" : 3,
                    "material" : 0
                }
            ]
        },
        {
            "name" : "Text",
            "primitives" : [
                {
                    "attributes" : {
                        "POSITION" : 4,
                        "NORMAL" : 5,
                        "TEXCOORD_0" : 6
                    },
                    "indices" : 7,
                    "material" : 1
                }
            ]
        },
        {
            "name" : "Sphere.008",
            "primitives" : [
                {
                    "attributes" : {
                        "POSITION" : 8,
                        "NORMAL" : 9,
                        "TEXCOORD_0" : 10
                    },
                    "indices" : 11,
                    "material" : 2
                }
            ]
        }
    ],
    "accessors" : [
        {
            "bufferView" : 0,
            "componentType" : 5126,
            "count" : 559,
            "max" : [
                0.9999997019767761,
                0.9973734021186829,
                0.9999994039535522
            ],
            "min" : [
                -0.9999990463256836,
                -1,
                -0.9999987483024597
            ],
            "type" : "VEC3"
        },
        {
            "bufferView" : 1,
            "componentType" : 5126,
            "count" : 559,
            "type" : "VEC3"
        },
        {
            "bufferView" : 2,
            "componentType" : 5126,
            "count" : 559,
            "type" : "VEC2"
        },
        {
            "bufferView" : 3,
            "componentType" : 5123,
            "count" : 2880,
            "type" : "SCALAR"
        },
        {
            "bufferView" : 4,
            "componentType" : 5126,
            "count" : 17,
            "max" : [
                0.2749471664428711,
                0,
                0
            ],
            "min" : [
                0.031196726486086845,
                0,
                -0.3048959970474243
            ],
            "type" : "VEC3"
        },
        {
            "bufferView" : 5,
            "componentType" : 5126,
            "count" : 17,
            "type" : "VEC3"
        },
        {
            "bufferView" : 6,
            "componentType" : 5126,
            "count" : 17,
            "type" : "VEC2"
        },
        {
            "bufferView" : 7,
            "componentType" : 5123,
            "count" : 30,
            "type" : "SCALAR"
        },
        {
            "bufferView" : 8,
            "componentType" : 5126,
            "count" : 559,
            "max" : [
                0.9999997019767761,
                1,
                0.9999994039535522
            ],
            "min" : [
                -0.9999990463256836,
                -1,
                -0.9999987483024597
            ],
            "type" : "VEC3"
        },
        {
            "bufferView" : 9,
            "componentType" : 5126,
            "count" : 559,
            "type" : "VEC3"
        },
        {
            "bufferView" : 10,
            "componentType" : 5126,
            "count" : 559,
            "type" : "VEC2"
        },
        {
            "bufferView" : 11,
            "componentType" : 5123,
            "count" : 2880,
            "type" : "SCALAR"
        },
        {
            "bufferView" : 12,
            "componentType" : 5126,
            "count" : 201,
            "max" : [
                8.333333333333334
            ],
            "min" : [
                0
            ],
            "type" : "SCALAR"
        },
        {
            "bufferView" : 13,
            "componentType" : 5126,
            "count" : 201,
            "type" : "VEC3"
        },
        {
            "bufferView" : 14,
            "componentType" : 5126,
            "count" : 201,
            "type" : "VEC4"
        },
        {
            "bufferView" : 15,
            "componentType" : 5126,
            "count" : 2,
            "max" : [
                8.333333333333334
            ],
            "min" : [
                0
            ],
            "type" : "SCALAR"
        },
        {
            "bufferView" : 16,
            "componentType" : 5126,
            "count" : 2,
            "type" : "VEC3"
        },
        {
            "bufferView" : 17,
            "componentType" : 5126,
            "count" : 2,
            "max" : [
                7.125
            ],
            "min" : [
                0
            ],
            "type" : "SCALAR"
        },
        {
            "bufferView" : 18,
            "componentType" : 5126,
            "count" : 2,
            "type" : "VEC3"
        },
        {
            "bufferView" : 19,
            "componentType" : 5126,
            "count" : 172,
            "max" : [
                7.125
            ],
            "min" : [
                0
            ],
            "type" : "SCALAR"
        },
        {
            "bufferView" : 20,
            "componentType" : 5126,
            "count" : 172,
            "type" : "VEC4"
        },
        {
            "bufferView" : 21,
            "componentType" : 5126,
            "count" : 2,
            "type" : "VEC3"
        }
    ],
    "bufferViews" : [
        {
            "buffer" : 0,
            "byteLength" : 6708,
            "byteOffset" : 0
        },
        {
            "buffer" : 0,
            "byteLength" : 6708,
            "byteOffset" : 6708
        },
        {
            "buffer" : 0,
            "byteLength" : 4472,
            "byteOffset" : 13416
        },
        {
            "buffer" : 0,
            "byteLength" : 5760,
            "byteOffset" : 17888
        },
        {
            "buffer" : 0,
            "byteLength" : 204,
            "byteOffset" : 23648
        },
        {
            "buffer" : 0,
            "byteLength" : 204,
            "byteOffset" : 23852
        },
        {
            "buffer" : 0,
            "byteLength" : 136,
            "byteOffset" : 24056
        },
        {
            "buffer" : 0,
            "byteLength" : 60,
            "byteOffset" : 24192
        },
        {
            "buffer" : 0,
            "byteLength" : 6708,
            "byteOffset" : 24252
        },
        {
            "buffer" : 0,
            "byteLength" : 6708,
            "byteOffset" : 30960
        },
        {
            "buffer" : 0,
            "byteLength" : 4472,
            "byteOffset" : 37668
        },
        {
            "buffer" : 0,
            "byteLength" : 5760,
            "byteOffset" : 42140
        },
        {
            "buffer" : 0,
            "byteLength" : 804,
            "byteOffset" : 47900
        },
        {
            "buffer" : 0,
            "byteLength" : 2412,
            "byteOffset" : 48704
        },
        {
            "buffer" : 0,
            "byteLength" : 3216,
            "byteOffset" : 51116
        },
        {
            "buffer" : 0,
            "byteLength" : 8,
            "byteOffset" : 54332
        },
        {
            "buffer" : 0,
            "byteLength" : 24,
            "byteOffset" : 54340
        },
        {
            "buffer" : 0,
            "byteLength" : 8,
            "byteOffset" : 54364
        },
        {
            "buffer" : 0,
            "byteLength" : 24,
            "byteOffset" : 54372
        },
        {
            "buffer" : 0,
            "byteLength" : 688,
            "byteOffset" : 54396
        },
        {
            "buffer" : 0,
            "byteLength" : 2752,
            "byteOffset" : 55084
        },
        {
            "buffer" : 0,
            "byteLength" : 24,
            "byteOffset" : 57836
        }
    ],
    "buffers" : [
        {
            "byteLength" : 57860,
            "uri" : "data:application/octet-stream;base64,"
        }
    ]
}
